<?xml version="1.0" encoding="UTF-8"?>
<svg version="1.1" xmlns="http://www.w3.org/2000/svg" width="823" height="303">
<path d="M0 0 C1.14597656 0.3815625 2.29195312 0.763125 3.47265625 1.15625 C14.768992 5.21908764 24.77082258 11.274327 34.5625 18.125 C35.41992798 18.71800903 35.41992798 18.71800903 36.29467773 19.32299805 C40.23305463 22.15664417 43.0470976 25.20576786 46 29 C45.39671875 29.21914063 44.7934375 29.43828125 44.171875 29.6640625 C38.7565591 31.8127201 35.58584176 33.50508625 33 39 C32.20317197 42.73225344 32.20317197 42.73225344 32 46 C31.01 45.67 30.02 45.34 29 45 C29 44.34 29 43.68 29 43 C28.45472656 42.74992187 27.90945312 42.49984375 27.34765625 42.2421875 C24.5334131 40.75312041 22.03878317 38.96079239 19.4375 37.125 C5.9507445 28.05149294 -8.72667535 26.53952796 -24.578125 28.42578125 C-39.72866493 31.40831508 -52.3250389 41.19607317 -61.34375 53.51171875 C-74.0180053 72.55299382 -77.18794125 94.0592449 -73.33984375 116.578125 C-70.36293738 128.89813577 -64.44016104 140.53793605 -56 150 C-55.44570312 150.62390625 -54.89140625 151.2478125 -54.3203125 151.890625 C-47.45105633 159.17140343 -39.457316 163.84756133 -30 167 C-29.01 167.3403125 -29.01 167.3403125 -28 167.6875 C-15.30954607 171.25669017 0.21201214 170.17986114 11.81396484 164.04003906 C19.00490795 159.98360962 24.93953509 155.60671808 30 149 C30.66 149 31.32 149 32 149 C32.00586624 149.75088898 32.01173248 150.50177795 32.01777649 151.27542114 C32.07578508 158.36694581 32.14790819 165.45815564 32.23571491 172.54936409 C32.28035957 176.19467057 32.31962825 179.83986681 32.34643555 183.48535156 C32.37252811 187.00634237 32.41297142 190.52690763 32.46318626 194.04763412 C32.48788358 196.03826001 32.49788447 198.02905075 32.50764465 200.01980591 C32.52743881 201.24061859 32.54723297 202.46143127 32.56762695 203.71923828 C32.57873001 204.78957306 32.58983307 205.85990784 32.60127258 206.962677 C33.06683437 210.50911363 34.18218981 212.93512153 36 216 C37.9739321 217.52280858 37.9739321 217.52280858 40.1875 218.375 C40.90292969 218.69210938 41.61835938 219.00921875 42.35546875 219.3359375 C42.89816406 219.55507812 43.44085938 219.77421875 44 220 C22.58933986 242.79199305 -10.81627104 253.35279571 -41.43115234 254.35351562 C-68.25445824 254.63206778 -93.40138683 246.57478205 -116.0625 232.625 C-116.76004395 232.19614502 -117.45758789 231.76729004 -118.17626953 231.32543945 C-119.82346051 230.27621857 -121.41817023 229.14538952 -123 228 C-123 227.34 -123 226.68 -123 226 C-123.55429688 225.76023438 -124.10859375 225.52046875 -124.6796875 225.2734375 C-127.52556558 223.71155828 -129.71106016 221.79394296 -132.125 219.625 C-132.99382812 218.85414063 -133.86265625 218.08328125 -134.7578125 217.2890625 C-136.78336688 215.22116203 -137.92192633 213.65278801 -139 211 C-139.66 211 -140.32 211 -141 211 C-142.6538081 209.09827185 -144.17921978 207.20041138 -145.6875 205.1875 C-146.36014893 204.29562988 -146.36014893 204.29562988 -147.04638672 203.38574219 C-160.94837499 184.76016392 -169.26840946 164.88867322 -173 142 C-173.18691406 140.90945312 -173.37382812 139.81890625 -173.56640625 138.6953125 C-177.56230107 104.64020891 -167.83184071 70.39674266 -146.8828125 43.42578125 C-145.51917584 41.66889668 -144.23364979 39.85047468 -143 38 C-142.34 38 -141.68 38 -141 38 C-140.76796875 37.44570312 -140.5359375 36.89140625 -140.296875 36.3203125 C-134.69366905 26.29529945 -123.33369965 19.21147268 -114 13 C-113.20464844 12.44699219 -112.40929687 11.89398438 -111.58984375 11.32421875 C-79.0995201 -9.93488191 -35.97787928 -11.98967039 0 0 Z " fill="#EC1651" transform="translate(195,28)"/>
<path d="M0 0 C5.00086496 2.06557466 6.66711599 5.33423199 9 10 C9.10338543 11.40609612 9.14644166 12.81687249 9.15821838 14.22671509 C9.1680072 15.11295059 9.17779602 15.9991861 9.18788147 16.91227722 C9.19651466 18.37423271 9.19651466 18.37423271 9.20532227 19.86572266 C9.21522186 20.89013962 9.22512146 21.91455658 9.23532104 22.97001648 C9.26699755 26.36800803 9.29171778 29.76601357 9.31640625 33.1640625 C9.33697047 35.51533377 9.35796679 37.86660129 9.37937927 40.21786499 C9.43465493 46.41565934 9.48403996 52.61348735 9.53222656 58.81134033 C9.58240152 65.13206998 9.63810846 71.45275055 9.69335938 77.7734375 C9.80100813 90.18224978 9.90243815 102.59110461 10 115 C11.98 114.01 11.98 114.01 14 113 C14 112.34 14 111.68 14 111 C14.66 111 15.32 111 16 111 C16 110.34 16 109.68 16 109 C17.29296875 107.6953125 17.29296875 107.6953125 19.1875 106.125 C22.9601497 102.91791507 26.62111183 99.6171429 30.25 96.25 C30.80059082 95.74114258 31.35118164 95.23228516 31.91845703 94.70800781 C34.74174109 92.09800223 37.55694661 89.47978231 40.36328125 86.8515625 C41.42963731 85.85932106 42.49604162 84.86713147 43.5625 83.875 C44.51253906 82.98554688 45.46257812 82.09609375 46.44140625 81.1796875 C48.60910433 79.33300731 50.39543259 78.09085412 53 77 C53 76.34 53 75.68 53 75 C53.66 75 54.32 75 55 75 C55 74.34 55 73.68 55 73 C56.609375 71.4140625 56.609375 71.4140625 58.75 69.625 C61.06903702 67.66242273 63.25219284 65.7411705 65.375 63.5625 C67 62 67 62 69 62 C69 61.34 69 60.68 69 60 C69.66 60 70.32 60 71 60 C71 59.34 71 58.68 71 58 C75.7712883 55.19335982 80.61145044 55.34441979 86 56 C89.71090878 58.12051931 91.36001068 60.13130725 93 64 C93.8379093 68.36009444 93.99636508 72.32563501 91.6796875 76.21875 C89.89255475 78.30240253 88.03296241 80.15615038 86 82 C85.35546875 82.60328125 84.7109375 83.2065625 84.046875 83.828125 C79.40712617 88 79.40712617 88 77 88 C77 88.66 77 89.32 77 90 C75.5390625 91.5078125 75.5390625 91.5078125 73.625 93.125 C72.99851562 93.66382813 72.37203125 94.20265625 71.7265625 94.7578125 C70 96 70 96 68 96 C68 96.66 68 97.32 68 98 C66.53125 99.48046875 66.53125 99.48046875 64.5 101.1875 C60.82607068 104.29922661 57.2313696 107.48152755 53.6640625 110.71484375 C52 112 52 112 50 112 C50 112.66 50 113.32 50 114 C48 115.625 48 115.625 46 117 C47.36796732 120.04878064 48.93754379 122.20600675 51.2578125 124.6015625 C52.19560547 125.58382812 52.19560547 125.58382812 53.15234375 126.5859375 C54.475129 127.95325215 55.79804719 129.3204382 57.12109375 130.6875 C57.74371094 131.33976563 58.36632812 131.99203125 59.0078125 132.6640625 C59.58160645 133.25654785 60.15540039 133.8490332 60.74658203 134.45947266 C62 136 62 136 62 138 C62.66 138 63.32 138 64 138 C64 138.66 64 139.32 64 140 C64.66 140 65.32 140 66 140 C67.65625 141.609375 67.65625 141.609375 69.5 143.75 C70.1084375 144.44609375 70.716875 145.1421875 71.34375 145.859375 C72.87976963 147.84460792 73.9723966 149.71872045 75 152 C75.66 152 76.32 152 77 152 C77 152.66 77 153.32 77 154 C77.66 154 78.32 154 79 154 C80.41015625 155.3984375 80.41015625 155.3984375 82.0625 157.375 C84.86909415 160.69937252 87.77238392 163.89058597 90.75 167.0625 C97.83785292 174.98492946 97.83785292 174.98492946 98.08203125 181.03125 C97.7514664 185.81997322 96.50216973 188.77431735 93 192 C88.67553606 194.49488304 85.03926756 195.67815412 80.0234375 194.74609375 C72.47674017 191.96343122 66.82574717 183.66846654 61.56640625 177.81640625 C59.53763145 175.59000346 57.48125158 173.46171842 55.3125 171.375 C53 169 53 169 53 167 C52.34 167 51.68 167 51 167 C51 166.34 51 165.68 51 165 C50.34 165 49.68 165 49 165 C49 164.34 49 163.68 49 163 C48.34 163 47.68 163 47 163 C45.625 161.6015625 45.625 161.6015625 44 159.625 C40.23777988 155.17078591 36.13941718 151.14316468 31.94140625 147.1015625 C30 145 30 145 30 143 C29.34 143 28.68 143 28 143 C28 142.34 28 141.68 28 141 C27.34 141 26.68 141 26 141 C24.375 139.5 24.375 139.5 23 138 C22.30132812 138.6496875 21.60265625 139.299375 20.8828125 139.96875 C19.97273438 140.8040625 19.06265625 141.639375 18.125 142.5 C17.22007812 143.3353125 16.31515625 144.170625 15.3828125 145.03125 C13 147 13 147 11 147 C11 147.66 11 148.32 11 149 C10.34 149 9.68 149 9 149 C9.01047363 150.06436279 9.02094727 151.12872559 9.03173828 152.2253418 C9.06802076 156.18559386 9.09093045 160.1458313 9.10986328 164.10620117 C9.11990208 165.81814039 9.13353595 167.53006255 9.15087891 169.24194336 C9.17522073 171.70691142 9.18650438 174.17165215 9.1953125 176.63671875 C9.20563507 177.39836838 9.21595764 178.16001801 9.22659302 178.94474792 C9.22746036 183.08082741 8.85778997 186.2812059 7 190 C6.34 190 5.68 190 5 190 C5 190.66 5 191.32 5 192 C0.43607115 194.67156811 -2.71994183 195.5557956 -8 195 C-12.52450527 193.77301552 -14.45761216 192.76789038 -17.17666626 188.91836548 C-20.29824245 182.21444073 -19.53900982 174.53965437 -19.48583984 167.30615234 C-19.4879879 165.61029264 -19.49186885 163.91443438 -19.49734497 162.21858215 C-19.50700818 157.62981021 -19.49177387 153.04142955 -19.47143888 148.45270491 C-19.45382473 143.64422547 -19.45739378 138.83575733 -19.4581604 134.0272522 C-19.45628967 125.95560183 -19.43895494 117.8841022 -19.41162109 109.8125 C-19.38015147 100.48524257 -19.36962579 91.15815002 -19.3710922 81.83084333 C-19.3724438 71.89080642 -19.35855999 61.95083291 -19.34019899 52.01081514 C-19.33594001 49.15012527 -19.33451715 46.28944565 -19.33372116 43.4287529 C-19.33170981 38.93235699 -19.31948002 34.43609909 -19.29938889 29.93974876 C-19.29355569 28.29101214 -19.29108475 26.64225964 -19.29224396 24.99351311 C-19.29322839 22.74067721 -19.28188521 20.48822538 -19.26742554 18.23544312 C-19.26407385 16.97560293 -19.26072216 15.71576275 -19.25726891 14.41774559 C-18.99755158 10.96747345 -18.24141682 8.21662592 -17 5 C-16.34 5 -15.68 5 -15 5 C-15 4.34 -15 3.68 -15 3 C-9.9598741 -0.10161594 -5.77305909 -0.77898949 0 0 Z " fill="#EA1751" transform="translate(271,54)"/>
<path d="M0 0 C1.97040711 1.43336006 3.78040183 2.93132341 5.578125 4.57421875 C6.444375 5.33734375 7.310625 6.10046875 8.203125 6.88671875 C17.82161844 17.77080343 21.67647545 29.5220873 21.546875 44.0859375 C20.56163675 59.23397564 15.85373117 71.91980239 4.87109375 82.67578125 C-5.8178777 91.52559407 -18.20633574 91.58413987 -31.421875 90.57421875 C-35.16814542 89.74314956 -38.15568239 88.56233599 -41.421875 86.57421875 C-42.05480469 86.21585937 -42.68773437 85.8575 -43.33984375 85.48828125 C-45.046875 84.44921875 -45.046875 84.44921875 -47.421875 82.57421875 C-47.421875 81.91421875 -47.421875 81.25421875 -47.421875 80.57421875 C-48.081875 80.57421875 -48.741875 80.57421875 -49.421875 80.57421875 C-49.421875 79.91421875 -49.421875 79.25421875 -49.421875 78.57421875 C-50.081875 78.57421875 -50.741875 78.57421875 -51.421875 78.57421875 C-61.44169661 65.22250466 -64.50708542 52.05908175 -63.421875 35.57421875 C-61.70094042 23.70121633 -56.52471009 11.63157971 -47.421875 3.57421875 C-33.33395767 -6.85511634 -15.52767521 -9.14129266 0 0 Z " fill="#EB1650" transform="translate(207.421875,83.42578125)"/>
<path d="M0 0 C8.71462888 6.86459593 13.76646144 15.11417941 15.81640625 26.15234375 C17.48176651 40.95554604 15.45020164 53.7933162 6.09765625 65.65234375 C-0.7188573 72.98691233 -8.37673669 76.43694884 -17.8984375 79.0390625 C-19.88075239 79.4743459 -19.88075239 79.4743459 -20.90234375 80.65234375 C-4.91105479 88.42518403 -4.91105479 88.42518403 12.2265625 86.34375 C13.15275391 86.00150391 13.15275391 86.00150391 14.09765625 85.65234375 C14.09765625 84.99234375 14.09765625 84.33234375 14.09765625 83.65234375 C17.32139302 81.5031859 18.36469299 81.26947572 22.09765625 81.65234375 C24.09765625 83.65234375 24.09765625 83.65234375 24.66015625 86.40234375 C23.93872218 90.57062947 22.49207249 91.8329785 19.19140625 94.328125 C11.11605653 99.43548238 1.40909949 99.93313464 -7.90234375 98.65234375 C-12.13427808 97.39474062 -15.94736865 95.59417619 -19.90234375 93.65234375 C-28.15762774 89.89543827 -28.15762774 89.89543827 -36.90234375 90.65234375 C-37.89234375 91.14734375 -37.89234375 91.14734375 -38.90234375 91.65234375 C-42.40234375 91.83984375 -42.40234375 91.83984375 -45.90234375 91.65234375 C-47.90234375 89.65234375 -47.90234375 89.65234375 -48.15234375 86.65234375 C-47.90234375 83.65234375 -47.90234375 83.65234375 -45.90234375 81.65234375 C-44.23428015 81.07226839 -42.54275451 80.55783793 -40.83984375 80.08984375 C-37.59022945 79.38121795 -37.59022945 79.38121795 -34.90234375 77.65234375 C-35.56621094 77.39839844 -36.23007812 77.14445312 -36.9140625 76.8828125 C-46.50291032 73.1452616 -46.50291032 73.1452616 -49.90234375 70.65234375 C-49.90234375 69.99234375 -49.90234375 69.33234375 -49.90234375 68.65234375 C-50.79953125 68.28109375 -50.79953125 68.28109375 -51.71484375 67.90234375 C-57.53182885 64.57835227 -60.89792684 56.52437648 -63.1484375 50.44140625 C-67.4739197 34.4393633 -63.7091982 20.57526331 -55.90234375 6.65234375 C-55.24234375 6.65234375 -54.58234375 6.65234375 -53.90234375 6.65234375 C-53.64839844 6.05550781 -53.39445312 5.45867187 -53.1328125 4.84375 C-49.8736595 -0.9606463 -42.95386214 -4.178244 -36.90234375 -6.34765625 C-24.01137209 -9.53694509 -10.77729892 -7.77410098 0 0 Z M-45.77734375 12.33984375 C-53.44071274 22.1409847 -54.19430558 32.60652995 -52.90234375 44.65234375 C-51.16642039 53.16921773 -45.88601983 60.0269637 -38.91015625 65.1015625 C-31.54013519 69.06468703 -22.16123184 68.92928641 -14.18359375 66.9921875 C-6.49196643 63.94978012 -1.02675888 58.16391149 2.3203125 50.6796875 C6.21739386 40.51594264 6.00953065 31.18386359 2.5546875 20.84375 C-0.57008253 13.99941457 -6.31890913 7.18265504 -13.4140625 4.2109375 C-25.56023003 1.48424683 -36.9384122 3.16596321 -45.77734375 12.33984375 Z " fill="#FFFFFF" transform="translate(469.90234375,61.34765625)"/>
<path d="M0 0 C1.4540625 0.2165625 1.4540625 0.2165625 2.9375 0.4375 C5.54118313 4.3430247 5.28898497 7.72413889 5.3515625 12.26171875 C5.37092865 13.12311966 5.3902948 13.98452057 5.4102478 14.87202454 C5.4700203 17.62291568 5.51641948 20.37384873 5.5625 23.125 C5.60068194 24.99025261 5.6397338 26.85548763 5.6796875 28.72070312 C5.7757199 33.29282586 5.8597595 37.86503114 5.9375 42.4375 C6.84677246 41.51952637 6.84677246 41.51952637 7.77441406 40.58300781 C8.57588867 39.77702148 9.37736328 38.97103516 10.203125 38.140625 C10.99493164 37.34301758 11.78673828 36.54541016 12.60253906 35.72363281 C14.57545723 33.79197182 16.57828025 31.9667944 18.6875 30.1875 C23.24611643 26.30252527 27.38945783 22.0104082 31.54589844 17.70410156 C32.97363968 16.24563785 34.45182127 14.83689994 35.9375 13.4375 C36.5975 13.4375 37.2575 13.4375 37.9375 13.4375 C37.9375 12.7775 37.9375 12.1175 37.9375 11.4375 C38.5975 11.4375 39.2575 11.4375 39.9375 11.4375 C39.9375 10.7775 39.9375 10.1175 39.9375 9.4375 C40.5975 9.4375 41.2575 9.4375 41.9375 9.4375 C41.9375 8.7775 41.9375 8.1175 41.9375 7.4375 C42.5975 7.4375 43.2575 7.4375 43.9375 7.4375 C44.2675 6.4475 44.5975 5.4575 44.9375 4.4375 C47.44722268 1.99749184 49.07591205 0.58109799 52.5625 0 C54.9375 0.4375 54.9375 0.4375 56.8125 1.625 C57.9375 3.4375 57.9375 3.4375 57.72827148 5.80151367 C56.80732749 8.87142175 55.67832514 10.18618507 53.41015625 12.42578125 C52.70052734 13.13154297 51.99089844 13.83730469 51.25976562 14.56445312 C50.51404297 15.28568359 49.76832031 16.00691406 49 16.75 C48.25814453 17.49056641 47.51628906 18.23113281 46.75195312 18.99414062 C41.21828917 24.4375 41.21828917 24.4375 38.9375 24.4375 C38.9375 25.0975 38.9375 25.7575 38.9375 26.4375 C38.2775 26.4375 37.6175 26.4375 36.9375 26.4375 C36.9375 27.0975 36.9375 27.7575 36.9375 28.4375 C35.1875 30.1640625 35.1875 30.1640625 32.9375 32.0625 C32.195 32.69414063 31.4525 33.32578125 30.6875 33.9765625 C30.11 34.45867187 29.5325 34.94078125 28.9375 35.4375 C30.47690785 40.27563896 33.2510995 43.59542676 36.4375 47.4375 C37.52445295 48.77130854 38.61037291 50.1059595 39.6953125 51.44140625 C40.23961914 52.10930176 40.78392578 52.77719727 41.34472656 53.46533203 C44.55301159 57.4378223 47.64730176 61.49654968 50.73046875 65.56640625 C52.08951839 67.33437348 53.48179788 69.07803916 54.92578125 70.77734375 C58.87514365 75.50749964 58.87514365 75.50749964 59.07421875 78.4765625 C58.8125 80.4375 58.8125 80.4375 57.9375 83.4375 C54.75 84.25 54.75 84.25 50.9375 84.4375 C48 82.125 48 82.125 45.9375 79.4375 C45.9375 78.7775 45.9375 78.1175 45.9375 77.4375 C45.2775 77.4375 44.6175 77.4375 43.9375 77.4375 C42.53696911 75.76229602 41.21852288 74.01826908 39.9375 72.25 C39.131023 71.1491423 38.32370027 70.04890379 37.515625 68.94921875 C37.09474609 68.37349121 36.67386719 67.79776367 36.24023438 67.20458984 C34.09463125 64.2941934 31.89302995 61.42760037 29.6875 58.5625 C28.89859375 57.53382812 28.1096875 56.50515625 27.296875 55.4453125 C25.61682935 53.30353244 23.91445345 51.23917468 22.140625 49.1796875 C19.9375 46.4375 19.9375 46.4375 19.9375 44.4375 C18.7266546 45.47624555 17.51898205 46.51868969 16.3125 47.5625 C15.30316406 48.43261719 15.30316406 48.43261719 14.2734375 49.3203125 C13.50257813 50.01898438 12.73171875 50.71765625 11.9375 51.4375 C11.41486572 51.81712891 10.89223145 52.19675781 10.35375977 52.58789062 C7.52724492 54.87503924 6.12805803 56.51233907 5.38183594 60.13525391 C5.15898853 63.33194394 5.10406971 66.4832634 5.125 69.6875 C5.10083938 71.85941274 5.07365186 74.03129461 5.04296875 76.203125 C5.04449951 77.15993164 5.04603027 78.11673828 5.04760742 79.10253906 C4.9375 81.4375 4.9375 81.4375 3.9375 83.4375 C1.125 84.3125 1.125 84.3125 -2.0625 84.4375 C-4.23036194 82.90576172 -4.23036194 82.90576172 -6.0625 80.4375 C-6.4524868 77.83915522 -6.6005669 75.66513175 -6.56420898 73.0703125 C-6.56961197 72.3348822 -6.57501495 71.5994519 -6.58058167 70.84173584 C-6.59307151 68.41491233 -6.57657744 65.98927465 -6.55859375 63.5625 C-6.55874873 61.87386004 -6.5602376 60.18521973 -6.56300354 58.49658203 C-6.56438764 54.95914975 -6.55182794 51.42212287 -6.52905273 47.88476562 C-6.50066786 43.35173097 -6.50340517 38.8193699 -6.51614285 34.2862854 C-6.52309975 30.7998276 -6.51531065 27.31352534 -6.50288582 23.8270874 C-6.49837142 22.15574744 -6.49803443 20.48439078 -6.50195122 18.81304932 C-6.50486361 16.47658091 -6.48835625 14.14103881 -6.46655273 11.8046875 C-6.47105438 11.11469666 -6.47555603 10.42470581 -6.48019409 9.71380615 C-6.43360697 6.7073146 -6.18491867 4.66080711 -4.72865295 2.00439453 C-3.0625 0.4375 -3.0625 0.4375 0 0 Z " fill="#FFFFFF" transform="translate(507.0625,54.5625)"/>
<path d="M0 0 C1.19141098 -0.00953201 2.38282196 -0.01906403 3.6103363 -0.02888489 C4.90302933 -0.02797348 6.19572235 -0.02706207 7.52758789 -0.02612305 C8.86275873 -0.03000891 10.19792833 -0.03434335 11.53309631 -0.03910828 C14.33330286 -0.04657554 17.13338335 -0.04627576 19.93359375 -0.04101562 C23.52289256 -0.03522201 27.11167518 -0.05214619 30.70088863 -0.0753603 C33.45897949 -0.09008984 36.21694583 -0.09097042 38.97506905 -0.08785057 C40.9421376 -0.08861414 42.90918682 -0.10249544 44.87620544 -0.11653137 C46.07076859 -0.11030258 47.26533173 -0.10407379 48.49609375 -0.09765625 C49.54929306 -0.09828568 50.60249237 -0.0989151 51.68760681 -0.0995636 C54.31274414 0.2746582 54.31274414 0.2746582 56.15675354 1.63777161 C57.78557979 3.94419509 57.66609865 5.51849305 57.31274414 8.2746582 C55.31274414 10.2746582 55.31274414 10.2746582 52.69897461 10.50170898 C51.62019043 10.49123535 50.54140625 10.48076172 49.42993164 10.4699707 C48.26333008 10.46352539 47.09672852 10.45708008 45.89477539 10.45043945 C44.67145508 10.43368164 43.44813477 10.41692383 42.18774414 10.3996582 C40.95668945 10.39063477 39.72563477 10.38161133 38.45727539 10.37231445 C35.40890599 10.34868368 32.36092032 10.31573874 29.31274414 10.2746582 C29.31940598 11.17223846 29.32606781 12.06981873 29.33293152 12.99459839 C29.39296762 21.44101358 29.43868026 29.88735743 29.46818066 38.33393669 C29.48385683 42.676737 29.50513039 47.01936146 29.5390625 51.36206055 C29.57158682 55.55065776 29.58958244 59.73908551 29.59737587 63.92779922 C29.60293189 65.52825718 29.61378109 67.12870556 29.62993431 68.72909164 C29.6516172 70.96567802 29.65471501 73.20155837 29.65332031 75.43823242 C29.65998215 76.71286346 29.66664398 77.98749451 29.67350769 79.30075073 C29.55445572 80.2821402 29.43540375 81.26352966 29.31274414 82.2746582 C26.31274414 84.2746582 26.31274414 84.2746582 23.25024414 84.1496582 C20.31274414 83.2746582 20.31274414 83.2746582 19.14334106 81.64422607 C18.04195393 78.50213453 18.07353759 75.81725293 18.08569336 72.48657227 C18.08540131 71.81299179 18.08510925 71.13941132 18.08480835 70.44541931 C18.08619773 68.22690795 18.10174013 66.00873564 18.11743164 63.7902832 C18.12116317 62.24900496 18.12400948 60.70772434 18.12600708 59.16644287 C18.13363253 55.11563534 18.15327161 51.06497191 18.17541504 47.01422119 C18.19589695 42.8783971 18.20501381 38.74254967 18.21508789 34.60668945 C18.23651859 26.49594635 18.27064133 18.38532022 18.31274414 10.2746582 C17.24576294 10.29822388 17.24576294 10.29822388 16.15722656 10.32226562 C12.9383131 10.38457735 9.71952646 10.42363688 6.50024414 10.4621582 C4.82091797 10.49986328 4.82091797 10.49986328 3.10766602 10.53833008 C2.03452148 10.54799805 0.96137695 10.55766602 -0.14428711 10.56762695 C-1.62892456 10.59119263 -1.62892456 10.59119263 -3.14355469 10.61523438 C-5.68725586 10.2746582 -5.68725586 10.2746582 -7.54541016 8.91650391 C-8.68725586 7.2746582 -8.68725586 7.2746582 -8.49975586 4.7121582 C-6.88952482 -0.11853491 -4.66548342 0.02042534 0 0 Z " fill="#FFFFFF" transform="translate(612.687255859375,54.725341796875)"/>
<path d="M0 0 C4.77272727 3.77840909 4.77272727 3.77840909 5.5 7.6875 C5 10 5 10 2 12 C-2.05955108 11.71003207 -5.58781716 9.02203427 -9 7 C-12.92300353 5.03849824 -17.71394844 5.64987184 -22 6 C-26.36936489 7.51869973 -26.36936489 7.51869973 -29 11 C-29.48981477 15.9239954 -29.48981477 15.9239954 -27.4375 20.25 C-22.52467762 23.77715453 -17.24107891 25.2435192 -11.5 26.9375 C-4.87446146 28.96091361 -0.00410776 30.48201845 4.4375 36.0625 C6.81489859 40.81729717 6.6342687 45.82405422 6 51 C4.3330817 56.00075489 1.46079274 59.24738829 -3 62 C-10.86299578 65.83186929 -19.46936258 66.30201851 -27.8125 63.75 C-32.65222381 61.91454124 -37.91821258 59.2802603 -41 55 C-41.3125 52.4375 -41.3125 52.4375 -41 50 C-40.34 49.34 -39.68 48.68 -39 48 C-35.01396135 48.31223969 -32.68366484 49.75652359 -29.5 52.0625 C-23.49969562 55.80819899 -17.90094421 55.91078452 -11 55 C-7.72670344 54.26427503 -7.72670344 54.26427503 -5 53 C-3.78739123 49.36217368 -3.60455448 46.82264001 -4 43 C-8.05827792 37.56072145 -13.09598684 36.3318953 -19.4375 34.5 C-27.46618859 32.17106743 -33.54763753 30.33250703 -37.875 22.6875 C-39.60755659 17.00856452 -39.60755659 12.99143548 -37.875 7.3125 C-34.5648971 1.46465154 -31.07180354 -0.89273839 -24.8125 -2.875 C-16.48251795 -4.86695223 -7.59934871 -4.16072938 0 0 Z " fill="#FFFFFF" transform="translate(446,184)"/>
<path d="M0 0 C2.875 -0.125 2.875 -0.125 6 0 C8.35630086 2.35630086 8.82424406 4.04049753 9.83984375 7.19921875 C10.18080078 8.24400391 10.52175781 9.28878906 10.87304688 10.36523438 C11.22431641 11.46158203 11.57558594 12.55792969 11.9375 13.6875 C15.09460982 23.4858118 15.09460982 23.4858118 19 33 C19.93862263 30.66711269 20.87602848 28.33375085 21.8125 26 C22.08803711 25.31462158 22.36357422 24.62924316 22.64746094 23.9230957 C24.07356097 20.36333062 25.45706786 16.7983312 26.75 13.1875 C28 10 28 10 30 8 C32.375 7.875 32.375 7.875 35 9 C36.67233327 11.69731172 37.81351079 14.07748974 39 17 C39.37439209 17.91410645 39.37439209 17.91410645 39.75634766 18.84667969 C41.54210928 23.21656827 43.28238906 27.60291598 45 32 C48.22625903 24.38522712 50.92918228 16.59596274 53.62524414 8.78222656 C53.91778076 7.9362793 54.21031738 7.09033203 54.51171875 6.21875 C54.77428467 5.45498047 55.03685059 4.69121094 55.30737305 3.90429688 C56 2 56 2 57 0 C59.31 0 61.62 0 64 0 C65.29958576 5.09656825 64.49022 8.54807936 62.625 13.3125 C62.06972636 14.79926039 61.51508105 16.28625554 60.9609375 17.7734375 C60.65124023 18.59166992 60.34154297 19.40990234 60.02246094 20.25292969 C58.86709491 23.35707929 57.76299771 26.47699816 56.6640625 29.6015625 C56.06537354 31.29671997 56.06537354 31.29671997 55.45458984 33.02612305 C54.65805877 35.28188483 53.86406966 37.53854599 53.07275391 39.79614258 C52.70327637 40.83150146 52.33379883 41.86686035 51.953125 42.93359375 C51.62473633 43.86228271 51.29634766 44.79097168 50.95800781 45.74780273 C50 48 50 48 48 50 C45.375 50.125 45.375 50.125 43 50 C38.98860866 41.46248127 35.44637352 32.77581709 32 24 C29.00550442 30.44968278 26.45180929 37.0007265 24.01904297 43.67773438 C22.10204986 48.89795014 22.10204986 48.89795014 21 50 C18.625 50.3125 18.625 50.3125 16 50 C12.44424586 46.46326059 11.29207598 41.57920174 9.75 36.9375 C7.90847796 31.4874955 6.0533974 26.05981976 3.953125 20.703125 C3.62602539 19.86015869 3.29892578 19.01719238 2.96191406 18.14868164 C2.33575301 16.54656753 1.6976572 14.94905015 1.04589844 13.35717773 C-0.87169048 8.39686169 -1.20925766 5.20118207 0 0 Z " fill="#FFFFFF" transform="translate(591,198)"/>
<path d="M0 0 C0.391875 -0.66 0.78375 -1.32 1.1875 -2 C3 -4 3 -4 5.5625 -4.375 C8 -4 8 -4 10 -2 C10.25396729 -0.02661133 10.25396729 -0.02661133 10.25878906 2.41796875 C10.26509338 3.33231689 10.27139771 4.24666504 10.27789307 5.1887207 C10.2738446 6.17831787 10.26979614 7.16791504 10.265625 8.1875 C10.26849518 9.70766724 10.26849518 9.70766724 10.27142334 11.25854492 C10.27278591 13.40381112 10.26908447 15.54908553 10.26074219 17.69433594 C10.25004382 20.98651572 10.26063519 24.27814978 10.2734375 27.5703125 C10.27211592 29.65104288 10.26955355 31.73177291 10.265625 33.8125 C10.26967346 34.80209717 10.27372192 35.79169434 10.27789307 36.8112793 C10.27158875 37.72562744 10.26528442 38.63997559 10.25878906 39.58203125 C10.25719788 40.38874268 10.25560669 41.1954541 10.25396729 42.02661133 C10 44 10 44 8 46 C5.5625 46.375 5.5625 46.375 3 46 C1.33984375 43.9765625 1.33984375 43.9765625 0 42 C-0.92619141 42.54140625 -0.92619141 42.54140625 -1.87109375 43.09375 C-8.66905134 46.81865827 -13.4911431 48.06888268 -21.09375 46.59375 C-26.97763187 44.87384607 -30.66536054 41.03150663 -34 36 C-38.1059192 27.93239764 -38.66091571 18.607365 -36.0859375 9.9140625 C-32.89298886 3.05437284 -28.84128595 -1.06595187 -21.75 -3.875 C-13.61587668 -6.2714168 -6.88909316 -4.64264974 0 0 Z M-26.3984375 9.76171875 C-29.36398598 14.94617052 -29.92092134 20.1395915 -29 26 C-27.33155409 31.19270333 -24.85678734 35.30178481 -20 38 C-15.25350607 39.39121374 -11.26104322 39.47959333 -6.6875 37.5 C-2.75335353 35.19593812 -0.43700261 32.32743073 1 28 C2.22745473 22.26278569 2.52550065 17.4298264 0 12 C-0.37125 11.13375 -0.7425 10.2675 -1.125 9.375 C-4.433241 5.1845614 -8.82745182 3.40735278 -14 2.4375 C-19.08702743 3.39131764 -23.15400852 5.67446325 -26.3984375 9.76171875 Z " fill="#FFFFFF" transform="translate(700,202)"/>
<path d="M0 0 C0.53367187 0.48597656 1.06734375 0.97195312 1.6171875 1.47265625 C1.6171875 2.13265625 1.6171875 2.79265625 1.6171875 3.47265625 C2.2771875 3.47265625 2.9371875 3.47265625 3.6171875 3.47265625 C8.41229453 14.11179998 8.41229453 14.11179998 7.6171875 20.47265625 C5.6171875 22.47265625 5.6171875 22.47265625 2.08544922 22.69970703 C0.57255419 22.69938988 -0.94036338 22.68806258 -2.453125 22.66796875 C-3.24935272 22.66513885 -4.04558044 22.66230896 -4.86593628 22.65939331 C-7.41338013 22.64818265 -9.96047461 22.62307687 -12.5078125 22.59765625 C-14.23306785 22.58762758 -15.95832869 22.57850153 -17.68359375 22.5703125 C-21.91680164 22.54824047 -26.1497478 22.51370492 -30.3828125 22.47265625 C-29.77773157 23.91307349 -29.16407397 25.34988966 -28.546875 26.78515625 C-28.2060791 27.58566406 -27.8652832 28.38617188 -27.51416016 29.2109375 C-25.72908102 32.77955493 -23.80210807 34.44640702 -20.3828125 36.47265625 C-13.90607981 38.18551118 -9.18384558 37.72123477 -3.3828125 34.47265625 C-2.6609375 33.89515625 -1.9390625 33.31765625 -1.1953125 32.72265625 C0.6171875 31.47265625 0.6171875 31.47265625 2.8671875 31.78515625 C3.4446875 32.01203125 4.0221875 32.23890625 4.6171875 32.47265625 C5.4296875 34.66015625 5.4296875 34.66015625 5.6171875 37.47265625 C1.8550599 42.11999035 -2.50997651 45.2723686 -8.3828125 46.47265625 C-16.7292724 47.22225196 -23.54132526 45.91052315 -30.6328125 41.41015625 C-36.16179718 36.15916521 -38.58628198 30.0421374 -38.92529297 22.46142578 C-38.98913408 15.72073873 -38.47143985 10.03262354 -34.3828125 4.47265625 C-33.7846875 3.56515625 -33.1865625 2.65765625 -32.5703125 1.72265625 C-23.2659789 -7.84751546 -10.45332857 -7.36073483 0 0 Z M-25.9453125 6.8671875 C-28.72226283 9.98336755 -29.3828125 11.19616998 -29.3828125 15.47265625 C-20.1428125 15.47265625 -10.9028125 15.47265625 -1.3828125 15.47265625 C-2.46510375 10.06119998 -3.55577586 8.29969289 -7.3828125 4.47265625 C-14.01180022 1.49637605 -20.43676186 1.95080606 -25.9453125 6.8671875 Z " fill="#FFFFFF" transform="translate(794.3828125,202.52734375)"/>
<path d="M0 0 C5.1518439 4.9223631 7.65727399 9.34159905 8.3359375 16.5859375 C8.4126207 24.02420825 8.42439411 29.84565248 4 36 C3.401875 36.9075 2.80375 37.815 2.1875 38.75 C-3.05418608 44.14144854 -8.89213842 45.94448326 -16.25 46.25 C-22.50236892 46.17693392 -29.45023053 44.54976947 -34 40 C-34 39.34 -34 38.68 -34 38 C-34.66 38 -35.32 38 -36 38 C-40.63259816 31.20552269 -42.49024598 24.08473072 -41.6953125 15.83984375 C-40.06122573 7.86106207 -36.72877233 2.51837073 -30.19921875 -2.33984375 C-20.6986762 -8.25925053 -8.43395776 -7.17901437 0 0 Z M-28.75 7.3125 C-32.64975839 11.97054474 -33.52327504 16.74181448 -33.3828125 22.69140625 C-32.51374561 27.93241171 -29.25946119 31.63558371 -25.75 35.4375 C-21.87781205 37.63760679 -18.43286415 38.18279852 -14 38 C-8.25769032 36.37301226 -5.35898062 33.89451462 -2 29 C0.629779 23.74044201 0.27892058 18.61811539 -1 13 C-2.72410116 9.57776469 -2.72410116 9.57776469 -5 7 C-5.474375 6.4225 -5.94875 5.845 -6.4375 5.25 C-13.87187297 -0.69749838 -22.03965513 1.66971 -28.75 7.3125 Z " fill="#FFFFFF" transform="translate(501,203)"/>
<path d="M0 0 C2.46317739 2.46317739 2.25001498 3.86594575 2.29327393 7.22895813 C2.29191437 8.31916512 2.29191437 8.31916512 2.29052734 9.43139648 C2.30060318 10.58040436 2.30060318 10.58040436 2.31088257 11.75262451 C2.32992602 14.2921797 2.33378985 16.83147154 2.3359375 19.37109375 C2.34236079 21.13224905 2.34908879 22.89340326 2.35610962 24.65455627 C2.3680981 28.34923782 2.37178881 32.04382576 2.37060547 35.73852539 C2.37040214 40.4780196 2.39771182 45.21691513 2.43214989 49.95626736 C2.45436283 53.59449533 2.45844475 57.23257792 2.45738602 60.87086678 C2.45975016 62.61841967 2.46861919 64.36597609 2.48405075 66.11346245 C2.50359922 68.55580723 2.49791775 70.99684414 2.48583984 73.43920898 C2.49707886 74.16398941 2.50831787 74.88876984 2.51989746 75.63551331 C2.47892182 78.88832977 2.40804424 80.566164 0.13369751 82.98426819 C-2.67701939 84.32229036 -4.09213511 83.99479588 -7 83 C-9.45315678 80.54684322 -9.2459273 79.18333261 -9.28216553 75.83450317 C-9.27968811 75.11704926 -9.27721069 74.39959534 -9.2746582 73.66040039 C-9.27976913 72.90414871 -9.28488007 72.14789703 -9.29014587 71.36872864 C-9.30407881 68.86162465 -9.30308233 66.35479442 -9.30078125 63.84765625 C-9.30466624 62.10892128 -9.3090005 60.37018725 -9.31376648 58.63145447 C-9.32123671 54.98384528 -9.32093169 51.33633286 -9.31567383 47.6887207 C-9.309879 43.00985378 -9.32680648 38.33138268 -9.3500185 33.65258121 C-9.36473698 30.06068091 -9.36563011 26.46887633 -9.36250877 22.87695122 C-9.36302297 21.15174005 -9.36827904 19.42652365 -9.37832069 17.70134163 C-9.39063113 15.29029615 -9.38392636 12.88002681 -9.37231445 10.46899414 C-9.37995819 9.75356445 -9.38760193 9.03813477 -9.39547729 8.30102539 C-9.3648116 5.42635331 -9.31701977 3.4635059 -7.6681366 1.05271912 C-5.08472639 -0.57760619 -2.97172938 -0.31614142 0 0 Z " fill="#FFFFFF" transform="translate(589,55)"/>
<path d="M0 0 C1.299375 -0.02126953 1.299375 -0.02126953 2.625 -0.04296875 C5 0.1875 5 0.1875 8 2.1875 C8.3125 4.6875 8.3125 4.6875 8 7.1875 C7.34 7.8475 6.68 8.5075 6 9.1875 C4.88625 9.0225 3.7725 8.8575 2.625 8.6875 C-0.78720675 7.96975134 -0.78720675 7.96975134 -3.1796875 8.8046875 C-5.2677226 10.08592804 -5.2677226 10.08592804 -5.609375 12.7890625 C-5.67898438 14.28566406 -5.67898438 14.28566406 -5.75 15.8125 C-5.80671875 16.81539062 -5.8634375 17.81828125 -5.921875 18.8515625 C-5.94765625 19.62242187 -5.9734375 20.39328125 -6 21.1875 C-5.31292969 21.16429687 -4.62585938 21.14109375 -3.91796875 21.1171875 C-2.56638672 21.09011719 -2.56638672 21.09011719 -1.1875 21.0625 C-0.29417969 21.03929687 0.59914063 21.01609375 1.51953125 20.9921875 C4 21.1875 4 21.1875 7 23.1875 C6.67 25.1675 6.34 27.1475 6 29.1875 C2.04 29.1875 -1.92 29.1875 -6 29.1875 C-5.98952637 30.35845215 -5.97905273 31.5294043 -5.96826172 32.73583984 C-5.93212503 37.07060705 -5.90912267 41.40536089 -5.89013672 45.74023438 C-5.88006466 47.61818682 -5.86640638 49.49612353 -5.84912109 51.37402344 C-5.82492547 54.0697009 -5.81352917 56.76517146 -5.8046875 59.4609375 C-5.79436493 60.30369232 -5.78404236 61.14644714 -5.77340698 62.01473999 C-5.77300856 64.07371247 -5.87742412 66.13217935 -6 68.1875 C-8 70.1875 -8 70.1875 -10.5 70.4375 C-13 70.1875 -13 70.1875 -15 68.1875 C-15.17539436 65.24653263 -15.23132375 62.40096651 -15.1953125 59.4609375 C-15.1924826 58.59812164 -15.18965271 57.73530579 -15.18673706 56.84634399 C-15.17552333 54.0849228 -15.15041684 51.3238235 -15.125 48.5625 C-15.11497173 46.69271301 -15.10584562 44.82292095 -15.09765625 42.953125 C-15.07558012 38.36445891 -15.04104234 33.77603407 -15 29.1875 C-16.918125 29.249375 -16.918125 29.249375 -18.875 29.3125 C-21.0546875 29.3828125 -21.0546875 29.3828125 -23 29.1875 C-23.66 28.5275 -24.32 27.8675 -25 27.1875 C-24.75 24.625 -24.75 24.625 -24 22.1875 C-21.04335481 20.7091774 -18.25770263 21.12717217 -15 21.1875 C-15.03480469 20.46304688 -15.06960938 19.73859375 -15.10546875 18.9921875 C-15.26456153 13.31030263 -15.38075548 9.01715069 -12 4.1875 C-8.26813778 0.80549986 -4.95166908 0.03684278 0 0 Z " fill="#FFFFFF" transform="translate(540,177.8125)"/>
<path d="M0 0 C2.5 0.25 2.5 0.25 4.5 2.25 C4.6953125 4.8515625 4.6953125 4.8515625 4.625 7.875 C4.60695313 8.87789062 4.58890625 9.88078125 4.5703125 10.9140625 C4.54710937 11.68492187 4.52390625 12.45578125 4.5 13.25 C5.19867187 13.22679687 5.89734375 13.20359375 6.6171875 13.1796875 C7.52726563 13.16164062 8.43734375 13.14359375 9.375 13.125 C10.73238281 13.09019531 10.73238281 13.09019531 12.1171875 13.0546875 C14.5 13.25 14.5 13.25 16.5 15.25 C15.94444444 19.80555556 15.94444444 19.80555556 14.5 21.25 C11.2 21.25 7.9 21.25 4.5 21.25 C4.83 31.81 5.16 42.37 5.5 53.25 C8.14 53.58 10.78 53.91 13.5 54.25 C14.5 55.25 14.5 55.25 14.75 57.6875 C14.6675 58.533125 14.585 59.37875 14.5 60.25 C10.25618144 63.07921237 6.48302125 62.90168699 1.5 62.25 C-1.31357163 60.64224478 -2.97801676 59.66322973 -4.11499023 56.58496094 C-4.66134994 53.2714643 -4.62229542 49.98799478 -4.59765625 46.640625 C-4.5962413 45.91381531 -4.59482635 45.18700562 -4.59336853 44.43817139 C-4.58778792 42.12540506 -4.57523904 39.81273688 -4.5625 37.5 C-4.55748249 35.92838682 -4.55292002 34.35677211 -4.54882812 32.78515625 C-4.53782485 28.94006657 -4.52057361 25.0950499 -4.5 21.25 C-5.61375 21.270625 -6.7275 21.29125 -7.875 21.3125 C-11.5 21.25 -11.5 21.25 -13.5 20.25 C-13.54254356 18.25045254 -13.54080783 16.24958364 -13.5 14.25 C-12.5 13.25 -12.5 13.25 -10.65234375 13.15234375 C-8.6015625 13.18489583 -6.55078125 13.21744792 -4.5 13.25 C-4.52320313 12.47914063 -4.54640625 11.70828125 -4.5703125 10.9140625 C-4.58835937 9.91117188 -4.60640625 8.90828125 -4.625 7.875 C-4.64820313 6.87726563 -4.67140625 5.87953125 -4.6953125 4.8515625 C-4.42769442 1.28688961 -3.56659343 0.35665934 0 0 Z " fill="#FFFFFF" transform="translate(564.5,185.75)"/>
<path d="M0 0 C1 1 1 1 1.1875 3.4375 C1 6 1 6 -1 8 C-3.171875 8.01953125 -3.171875 8.01953125 -5.75 7.8125 C-9.69799549 7.7498334 -10.882335 7.93154037 -14.4375 10 C-20.77263871 17.41674776 -20.48601339 25.54304213 -20.625 34.875 C-20.67583464 37.30997932 -20.73032825 39.74488592 -20.7890625 42.1796875 C-20.80662598 43.24944824 -20.82418945 44.31920898 -20.84228516 45.42138672 C-21 48 -21 48 -22 50 C-24.31 49.67 -26.62 49.34 -29 49 C-29 33.49 -29 17.98 -29 2 C-27.35 1.34 -25.7 0.68 -24 0 C-21 2 -21 2 -20.3125 4.625 C-20.209375 5.40875 -20.10625 6.1925 -20 7 C-19.236875 6.21625 -18.47375 5.4325 -17.6875 4.625 C-11.93585841 -0.99288248 -7.76109546 -1.49251836 0 0 Z " fill="#FFFFFF" transform="translate(752,198)"/>
<path d="M0 0 C0.66 0 1.32 0 2 0 C2.33 20.79 2.66 41.58 3 63 C2.01 63.495 2.01 63.495 1 64 C0.23213888 45.31606019 -0.14704105 26.70135976 0 8 C-2.42797311 8 -4.62907005 8.50085685 -7 9 C-6.57847656 8.51789063 -6.15695313 8.03578125 -5.72265625 7.5390625 C-5.17480469 6.90742188 -4.62695312 6.27578125 -4.0625 5.625 C-3.51722656 4.99851563 -2.97195312 4.37203125 -2.41015625 3.7265625 C-0.93041376 2.04367666 -0.93041376 2.04367666 0 0 Z " fill="#D82D5A" transform="translate(225,177)"/>
<path d="M0 0 C-3.9700218 4.21814817 -8.30840284 7.61227103 -13 11 C-13.66 10.67 -14.32 10.34 -15 10 C-15 8.68 -15 7.36 -15 6 C-13.68 6.33 -12.36 6.66 -11 7 C-10.9175 5.88625 -10.835 4.7725 -10.75 3.625 C-10 0 -10 0 -8.3125 -1.5625 C-5.10311092 -2.16968172 -2.97549576 -1.21724827 0 0 Z " fill="#DD2051" transform="translate(239,248)"/>
<path d="M0 0 C1.65 1.65 3.3 3.3 5 5 C4.39671875 5.21914063 3.7934375 5.43828125 3.171875 5.6640625 C-2.2434409 7.8127201 -5.41415824 9.50508625 -8 15 C-8.79682803 18.73225344 -8.79682803 18.73225344 -9 22 C-9.99 21.67 -10.98 21.34 -12 21 C-12 20.34 -12 19.68 -12 19 C-12.66 19 -13.32 19 -14 19 C-12.99016155 16.82496335 -11.97221019 14.96410483 -10.5 13.0625 C-8.84914694 11.04071139 -8.84914694 11.04071139 -8.25 8.375 C-7 6 -7 6 -3.375 4.6875 C-2.26125 4.460625 -1.1475 4.23375 0 4 C0 2.68 0 1.36 0 0 Z " fill="#E02456" transform="translate(236,52)"/>
<path d="M0 0 C-0.33 0.99 -0.66 1.98 -1 3 C-1.99 3 -2.98 3 -4 3 C-4.433125 3.9590625 -4.433125 3.9590625 -4.875 4.9375 C-6.25420005 7.46603342 -7.48167934 7.74083967 -10 9 C-10 8.34 -10 7.68 -10 7 C-10.556875 7.33 -11.11375 7.66 -11.6875 8 C-14.30284522 9.1309601 -16.1806646 9.15662974 -19 9 C-15.4603015 5.9379318 -12.14881875 3.99530096 -7.8125 2.25 C-6.76707031 1.82203125 -5.72164062 1.3940625 -4.64453125 0.953125 C-2 0 -2 0 0 0 Z " fill="#E12055" transform="translate(105,30)"/>
<path d="M0 0 C1.02083333 0.875 2.04166667 1.75 3.0625 2.625 C3.70058594 3.1715625 4.33867187 3.718125 4.99609375 4.28125 C6.28143415 5.38368621 7.56541274 6.48771332 8.84765625 7.59375 C12.18035262 10.46499611 15.54375501 13.27689789 19 16 C16.61435923 15.42415568 14.33317216 14.77772405 12 14 C12 13.34 12 12.68 12 12 C9.69 11.34 7.38 10.68 5 10 C5 8.68 5 7.36 5 6 C2.03 5.505 2.03 5.505 -1 5 C-0.67 3.35 -0.34 1.7 0 0 Z " fill="#CB2757" transform="translate(135,175)"/>
<path d="M0 0 C0.66 0 1.32 0 2 0 C2 1.98 2 3.96 2 6 C0.68 6 -0.64 6 -2 6 C-2.33 6.99 -2.66 7.98 -3 9 C-4.84765625 10.60546875 -4.84765625 10.60546875 -7.0625 12.1875 C-7.79597656 12.71730469 -8.52945312 13.24710938 -9.28515625 13.79296875 C-9.85105469 14.19128906 -10.41695313 14.58960938 -11 15 C-10.72482232 10.32197941 -8.66806114 8.25361247 -5.47265625 5.13671875 C-4 4 -4 4 -2 4 C-2 3.34 -2 2.68 -2 2 C-1.34 2 -0.68 2 0 2 C0 1.34 0 0.68 0 0 Z " fill="#DF1E53" transform="translate(326,127)"/>
<path d="M0 0 C0 3 0 3 -2.3359375 5.48046875 C-3.34126274 6.39137852 -4.35466684 7.29343306 -5.375 8.1875 C-5.88289063 8.65091797 -6.39078125 9.11433594 -6.9140625 9.59179688 C-10.72884067 13 -10.72884067 13 -13 13 C-13 12.01 -13 11.02 -13 10 C-12.01 10 -11.02 10 -10 10 C-9.67 8.68 -9.34 7.36 -9 6 C-8.01 6 -7.02 6 -6 6 C-6.33 4.35 -6.66 2.7 -7 1 C-5.5459375 1.0309375 -5.5459375 1.0309375 -4.0625 1.0625 C-1.12534105 1.35618499 -1.12534105 1.35618499 0 0 Z " fill="#D82255" transform="translate(361,129)"/>
<path d="M0 0 C0.33 1.32 0.66 2.64 1 4 C3.97 4.495 3.97 4.495 7 5 C3.61123047 7.25917968 1.96417882 7.20896551 -1.9921875 6.625 C-5.19030306 5.62947765 -6.92404829 3.53006615 -9 1 C-8.071875 1.20625 -7.14375 1.4125 -6.1875 1.625 C-2.84826598 2.36692966 -2.84826598 2.36692966 0 0 Z " fill="#D72455" transform="translate(353,242)"/>
<path d="M0 0 C0 0.33 0 0.66 0 1 C-2.31 1.66 -4.62 2.32 -7 3 C-7.33 4.65 -7.66 6.3 -8 8 C-8.598125 7.67 -9.19625 7.34 -9.8125 7 C-12.05386471 5.79212012 -12.05386471 5.79212012 -15 6 C-15 5.01 -15 4.02 -15 3 C-9.8531808 -0.16727335 -5.841744 -0.35050464 0 0 Z " fill="#DC1F53" transform="translate(271,54)"/>
<path d="M0 0 C1.96524451 2.94786676 3.57472183 5.90972937 5.1875 9.0625 C5.73792969 10.12597656 6.28835937 11.18945312 6.85546875 12.28515625 C7.23316406 13.18105469 7.61085937 14.07695312 8 15 C7.67 15.66 7.34 16.32 7 17 C6.34 16.67 5.68 16.34 5 16 C5 15.34 5 14.68 5 14 C4.34 14 3.68 14 3 14 C3 13.34 3 12.68 3 12 C2.34 12 1.68 12 1 12 C-0.3271261 8.0186217 -0.06915913 4.14954773 0 0 Z " fill="#D02552" transform="translate(123,152)"/>
<path d="M0 0 C5.60906516 1.37110482 5.60906516 1.37110482 7.4375 4.3125 C7.953125 5.199375 8.46875 6.08625 9 7 C11.23842898 8.85527447 13.56761773 10.39370982 16 12 C15.67 13.32 15.34 14.64 15 16 C12.49599357 13.5248518 9.99748094 11.04423106 7.5 8.5625 C6.78457031 7.85544922 6.06914062 7.14839844 5.33203125 6.41992188 C4.65527344 5.74638672 3.97851562 5.07285156 3.28125 4.37890625 C2.65283203 3.7557251 2.02441406 3.13254395 1.37695312 2.49047852 C0 1 0 1 0 0 Z " fill="#CA2F58" transform="translate(303,200)"/>
<path d="M0 0 C0.68932075 2.14455345 1.11153318 3.56300639 0.54711914 5.77441406 C-0.12229113 8.49745914 -0.21632294 11.05704239 -0.31640625 13.859375 C-0.35830078 14.97441406 -0.40019531 16.08945313 -0.44335938 17.23828125 C-0.48267578 18.39714844 -0.52199219 19.55601563 -0.5625 20.75 C-0.60568359 21.92433594 -0.64886719 23.09867188 -0.69335938 24.30859375 C-0.79934794 27.20561451 -0.90141638 30.10271935 -1 33 C-1.33 33 -1.66 33 -2 33 C-2 22.77 -2 12.54 -2 2 C-1.34 2 -0.68 2 0 2 C0 1.34 0 0.68 0 0 Z " fill="#CC2858" transform="translate(121,105)"/>
<path d="M0 0 C2.97 0.33 5.94 0.66 9 1 C9 1.33 9 1.66 9 2 C6.50159546 2.50938345 4.00176612 3.00763114 1.5 3.5 C0.80390625 3.64308594 0.1078125 3.78617187 -0.609375 3.93359375 C-5.49087203 4.88277373 -10.02718299 5.13440046 -15 5 C-11.73386305 3.08697693 -9.00554752 2.64325339 -5.25 2.375 C-4.26515625 2.30023438 -3.2803125 2.22546875 -2.265625 2.1484375 C-1.51796875 2.09945313 -0.7703125 2.05046875 0 2 C0 1.34 0 0.68 0 0 Z " fill="#D62556" transform="translate(176,276)"/>
<path d="M0 0 C2.04119788 1.61594832 4.04072937 3.2856382 6 5 C6 5.66 6 6.32 6 7 C6.66 7 7.32 7 8 7 C8 7.66 8 8.32 8 9 C8.66 9 9.32 9 10 9 C11.2890625 10.53125 11.2890625 10.53125 12.625 12.5 C13.07101562 13.1496875 13.51703125 13.799375 13.9765625 14.46875 C14.48316406 15.22671875 14.48316406 15.22671875 15 16 C13.65686601 15.35330586 12.32608822 14.68096422 11 14 C10.154375 13.5875 9.30875 13.175 8.4375 12.75 C5.39446798 10.56525906 4.54417181 8.36910213 3 5 C2.01834406 3.98198643 1.02408568 2.9753197 0 2 C0 1.34 0 0.68 0 0 Z " fill="#D32956" transform="translate(327,185)"/>
<path d="M0 0 C0.66 0 1.32 0 2 0 C2 0.66 2 1.32 2 2 C2.99 2 3.98 2 5 2 C5 2.99 5 3.98 5 5 C5.928125 5.2165625 5.928125 5.2165625 6.875 5.4375 C9 6 9 6 11 7 C10 9 10 9 9 10 C9.99 10 10.98 10 12 10 C12.33 10.99 12.66 11.98 13 13 C10.525 12.01 10.525 12.01 8 11 C8 10.34 8 9.68 8 9 C7.34 9 6.68 9 6 9 C6 8.34 6 7.68 6 7 C5.34 7 4.68 7 4 7 C2.02 3.535 2.02 3.535 0 0 Z " fill="#D82453" transform="translate(152,155)"/>
<path d="M0 0 C4.95 1.65 9.9 3.3 15 5 C15 5.33 15 5.66 15 6 C13.54263913 6.19491452 12.08405407 6.38069358 10.625 6.5625 C9.81289062 6.66691406 9.00078125 6.77132812 8.1640625 6.87890625 C6 7 6 7 4 6 C4 5.34 4 4.68 4 4 C3.34 4 2.68 4 2 4 C2 3.34 2 2.68 2 2 C1.34 2 0.68 2 0 2 C0 1.34 0 0.68 0 0 Z " fill="#D72352" transform="translate(154,191)"/>
<path d="M0 0 C0.33 0.66 0.66 1.32 1 2 C2.98 1.67 4.96 1.34 7 1 C6 3 6 3 3.6171875 4.1171875 C-1.26178528 5.30795192 -5.87516654 5.21307295 -10.875 5.125 C-11.84953125 5.11597656 -12.8240625 5.10695312 -13.828125 5.09765625 C-16.21900728 5.07421623 -18.60937261 5.04140442 -21 5 C-21 4.67 -21 4.34 -21 4 C-20.15236084 3.96241577 -20.15236084 3.96241577 -19.28759766 3.92407227 C-16.73316258 3.80820044 -14.1791045 3.68543463 -11.625 3.5625 C-10.29082031 3.50352539 -10.29082031 3.50352539 -8.9296875 3.44335938 C-8.07890625 3.40146484 -7.228125 3.35957031 -6.3515625 3.31640625 C-5.56604004 3.27974854 -4.78051758 3.24309082 -3.97119141 3.20532227 C-1.92476504 3.109109 -1.92476504 3.109109 0 2 C0 1.34 0 0.68 0 0 Z " fill="#D12554" transform="translate(197,169)"/>
<path d="M0 0 C3.23895784 2.65760643 5.29793666 4.72717749 6 8.875 C6.32382252 13.24245248 4.9977423 16.16433479 3 20 C2.67 18.68 2.34 17.36 2 16 C2.66 16 3.32 16 4 16 C3.9129995 14.37399059 3.8048219 12.74910322 3.6875 11.125 C3.62949219 10.22007812 3.57148438 9.31515625 3.51171875 8.3828125 C3.2117961 5.63778399 3.2117961 5.63778399 0 4 C0 2.68 0 1.36 0 0 Z " fill="#CC2854" transform="translate(363,224)"/>
<path d="M0 0 C2.64 0.33 5.28 0.66 8 1 C8.061875 1.928125 8.061875 1.928125 8.125 2.875 C8.41375 3.57625 8.7025 4.2775 9 5 C11.99615946 6.3045656 11.99615946 6.3045656 15 7 C15 7.66 15 8.32 15 9 C2.23529412 4.47058824 2.23529412 4.47058824 0 0 Z " fill="#D22756" transform="translate(77,258)"/>
<path d="M0 0 C0.99 0.33 1.98 0.66 3 1 C2.67 2.65 2.34 4.3 2 6 C1.34 6 0.68 6 0 6 C-0.12375 7.299375 -0.2475 8.59875 -0.375 9.9375 C-0.5859375 12.15234375 -0.5859375 12.15234375 -1 14 C-1.99 14.495 -1.99 14.495 -3 15 C-2.22095672 4.44191344 -2.22095672 4.44191344 0 0 Z " fill="#D92353" transform="translate(148,104)"/>
<path d="M0 0 C0.66 0.33 1.32 0.66 2 1 C0 5 -2 9 -4 13 C-4.33 11.35 -4.66 9.7 -5 8 C-5.66 8 -6.32 8 -7 8 C-7 7.34 -7 6.68 -7 6 C-5.35 5.67 -3.7 5.34 -2 5 C-2 3.68 -2 2.36 -2 1 C-1.34 0.67 -0.68 0.34 0 0 Z " fill="#D42453" transform="translate(127,88)"/>
<path d="M0 0 C0 0.66 0 1.32 0 2 C-1.11375 2.5775 -2.2275 3.155 -3.375 3.75 C-6.33192143 5.42260202 -7.92315721 6.64982242 -9 10 C-9.99 10 -10.98 10 -12 10 C-12.33 10.99 -12.66 11.98 -13 13 C-13.66 12.67 -14.32 12.34 -15 12 C-5.15533981 0 -5.15533981 0 0 0 Z " fill="#CF2752" transform="translate(168,83)"/>
<path d="M0 0 C7.48291572 5.0022779 7.48291572 5.0022779 10 9 C9.67 9.66 9.34 10.32 9 11 C6.5625 10.1875 6.5625 10.1875 4 9 C3.67 8.01 3.34 7.02 3 6 C2.34 5.67 1.68 5.34 1 5 C0.375 2.4375 0.375 2.4375 0 0 Z " fill="#D52154" transform="translate(209,85)"/>
<path d="M0 0 C1.98283479 1.11852219 3.96117623 2.24501325 5.9375 3.375 C7.59072266 4.31472656 7.59072266 4.31472656 9.27734375 5.2734375 C12 7 12 7 13 9 C8.545 8.01 8.545 8.01 4 7 C4 6.01 4 5.02 4 4 C3.01 4 2.02 4 1 4 C0.67 2.68 0.34 1.36 0 0 Z " fill="#CE2358" transform="translate(215,37)"/>
<path d="M0 0 C1.6266848 0.28211877 3.25132896 0.57602375 4.875 0.875 C5.77992188 1.03742187 6.68484375 1.19984375 7.6171875 1.3671875 C10 2 10 2 12 4 C10.02 4 8.04 4 6 4 C5.67 4.66 5.34 5.32 5 6 C4.01 5.34 3.02 4.68 2 4 C2.33 3.67 2.66 3.34 3 3 C2.01 2.67 1.02 2.34 0 2 C0 1.34 0 0.68 0 0 Z " fill="#D62253" transform="translate(183,25)"/>
<path d="M0 0 C0.66 0.33 1.32 0.66 2 1 C1.38125 1.5775 0.7625 2.155 0.125 2.75 C-2.0665937 4.80150042 -2.0665937 4.80150042 -2.875 7.125 C-4.58141089 9.96901815 -6.90675716 10.19306709 -10 11 C-6.79239749 7.19364503 -3.59253891 3.45436433 0 0 Z " fill="#CF2D57" transform="translate(310,142)"/>
<path d="M0 0 C0.98484375 0.01804687 1.9696875 0.03609375 2.984375 0.0546875 C4.10585938 0.08949219 4.10585938 0.08949219 5.25 0.125 C5.58 0.785 5.91 1.445 6.25 2.125 C5.47914063 2.10179688 4.70828125 2.07859375 3.9140625 2.0546875 C2.40972656 2.02761719 2.40972656 2.02761719 0.875 2 C-0.12273437 1.97679688 -1.12046875 1.95359375 -2.1484375 1.9296875 C-4.91262173 1.85283152 -4.91262173 1.85283152 -6.75 4.125 C-7.74 4.125 -8.73 4.125 -9.75 4.125 C-9.75 3.465 -9.75 2.805 -9.75 2.125 C-6.40060119 0.09941119 -3.88037449 -0.09238987 0 0 Z " fill="#D32656" transform="translate(351.75,109.875)"/>
<path d="M0 0 C4.55105375 0.54179211 8.06386006 1.62000841 12 4 C12.33 4.99 12.66 5.98 13 7 C8.50202887 5.31326082 4.27113698 3.18326108 0 1 C0 0.67 0 0.34 0 0 Z " fill="#CB2D54" transform="translate(203,58)"/>
<path d="M0 0 C1.65 1.65 3.3 3.3 5 5 C0.545 6.485 0.545 6.485 -4 8 C-4 7.01 -4 6.02 -4 5 C-2.68 4.67 -1.36 4.34 0 4 C0 2.68 0 1.36 0 0 Z " fill="#CD2953" transform="translate(236,52)"/>
<path d="M0 0 C0 0.99 0 1.98 0 3 C-0.66 3 -1.32 3 -2 3 C-2 3.66 -2 4.32 -2 5 C-2.66 5 -3.32 5 -4 5 C-4.66 5.66 -5.32 6.32 -6 7 C-6.99 6.34 -7.98 5.68 -9 5 C-7.87926138 4.16094435 -6.75325453 3.32892169 -5.625 2.5 C-4.99851562 2.0359375 -4.37203125 1.571875 -3.7265625 1.09375 C-2 0 -2 0 0 0 Z " fill="#D92053" transform="translate(86,39)"/>
<path d="M0 0 C4.75609756 4.26829268 4.75609756 4.26829268 5.875 7.625 C6 10 6 10 5 13 C4.15930585 11.39967863 3.32768495 9.79458829 2.5 8.1875 C1.80390625 6.84751953 1.80390625 6.84751953 1.09375 5.48046875 C0 3 0 3 0 0 Z " fill="#D72757" transform="translate(31,200)"/>
<path d="M0 0 C2.93200474 2.85276137 5.64315404 5.65079784 8 9 C3.25 8.25 3.25 8.25 1 6 C1 5.01 1 4.02 1 3 C0.67 2.01 0.34 1.02 0 0 Z " fill="#D82558" transform="translate(319,176)"/>
<path d="M0 0 C0.66 0 1.32 0 2 0 C2 1.98 2 3.96 2 6 C-0.64 6.33 -3.28 6.66 -6 7 C-5.34 6.01 -4.68 5.02 -4 4 C-3.34 4 -2.68 4 -2 4 C-2 3.34 -2 2.68 -2 2 C-1.34 2 -0.68 2 0 2 C0 1.34 0 0.68 0 0 Z " fill="#D72654" transform="translate(326,127)"/>
<path d="M0 0 C-0.66 1.65 -1.32 3.3 -2 5 C-2.99 4.67 -3.98 4.34 -5 4 C-4.67 3.34 -4.34 2.68 -4 2 C-5.32 1.67 -6.64 1.34 -8 1 C-4.93251126 -0.86240388 -3.40254489 -1.2151946 0 0 Z " fill="#DE1D50" transform="translate(176,81)"/>
<path d="M0 0 C-1 3 -1 3 -3.25 4.1875 C-5.99791147 4.99938294 -8.15447889 5.16260121 -11 5 C-9.70976282 2.41952564 -8.72910609 2.32977036 -6.0625 1.375 C-5.35222656 1.11460938 -4.64195313 0.85421875 -3.91015625 0.5859375 C-2 0 -2 0 0 0 Z " fill="#D62553" transform="translate(105,30)"/>
<path d="M0 0 C0.66 0.33 1.32 0.66 2 1 C-0.66666667 3.66666667 -3.33333333 6.33333333 -6 9 C-6.66 8.34 -7.32 7.68 -8 7 C-5.36 4.69 -2.72 2.38 0 0 Z " fill="#CC2B56" transform="translate(72,47)"/>
<path d="M0 0 C0.33 1.32 0.66 2.64 1 4 C1.33 3.34 1.66 2.68 2 2 C2.99 2.33 3.98 2.66 5 3 C3.3545622 4.68762851 1.68711423 6.3540349 0 8 C-0.33 8 -0.66 8 -1 8 C-0.67 5.36 -0.34 2.72 0 0 Z " fill="#DD2054" transform="translate(26,114)"/>
<path d="M0 0 C0.66 0 1.32 0 2 0 C2 0.66 2 1.32 2 2 C3.98 1.67 5.96 1.34 8 1 C7.34 2.65 6.68 4.3 6 6 C1.125 3.375 1.125 3.375 0 0 Z " fill="#DE1F4F" transform="translate(215,63)"/>
<path d="M0 0 C2.4375 0.6875 2.4375 0.6875 5 2 C5.8125 4.625 5.8125 4.625 6 7 C3.95880212 5.38405168 1.95927063 3.7143618 0 2 C0 1.34 0 0.68 0 0 Z " fill="#D42353" transform="translate(313,209)"/>
<path d="M0 0 C1.98 0 3.96 0 6 0 C3.64722731 2.72426311 1.37503669 3.8141763 -2 5 C-2 4.01 -2 3.02 -2 2 C-1.34 2 -0.68 2 0 2 C0 1.34 0 0.68 0 0 Z " fill="#D42353" transform="translate(210,264)"/>
<path d="M0 0 C0.99 0 1.98 0 3 0 C2.67 1.65 2.34 3.3 2 5 C1.34 5 0.68 5 0 5 C0 5.66 0 6.32 0 7 C-0.66 6.67 -1.32 6.34 -2 6 C-1.34 4.02 -0.68 2.04 0 0 Z " fill="#DC2354" transform="translate(276,239)"/>
<path d="M0 0 C-2.8125 2.0625 -2.8125 2.0625 -6 4 C-6.99 3.67 -7.98 3.34 -9 3 C-8.34 3 -7.68 3 -7 3 C-7 2.01 -7 1.02 -7 0 C-3.98968256 -0.93423645 -3.13349732 -1.04449911 0 0 Z " fill="#D02555" transform="translate(225,260)"/>
<path d="M0 0 C1.32 0.99 2.64 1.98 4 3 C3.67 3.99 3.34 4.98 3 6 C1.68 5.67 0.36 5.34 -1 5 C-0.67 3.35 -0.34 1.7 0 0 Z " fill="#D72153" transform="translate(135,175)"/>
</svg>
